<svg width="16" height="16" viewBox="0 0 24 24" xmlns="http://www.w3.org/2000/svg"><path d="M20.742 13.045a8.086 8.086 0 0 1-2.077.271c-2.135 0-4.14-.83-5.646-2.336a8.026 8.026 0 0 1-2.064-7.723A1 1 0 0 0 9.73 2.034a10.014 10.014 0 0 0-4.489 2.582c-3.898 3.898-3.898 10.243 0 14.143a9.936 9.936 0 0 0 7.072 2.93 9.93 9.93 0 0 0 7.07-2.929 10.007 10.007 0 0 0 2.583-4.491 1 1 0 0 0-1.224-1.224Zm-2.772 4.301a7.947 7.947 0 0 1-5.656 2.343 7.952 7.952 0 0 1-5.658-2.344c-3.118-3.119-3.118-8.195 0-11.314a7.923 7.923 0 0 1 2.06-1.483 10.027 10.027 0 0 0 2.89 7.848 9.973 9.973 0 0 0 7.848 2.891 8.037 8.037 0 0 1-1.484 2.059Z" fill="#fff"></path></svg>