<svg width="16" height="16" viewBox="0 0 24 24" xmlns="http://www.w3.org/2000/svg"><path d="M12 18.14a.722.722 0 0 0-.722.722v2.166a.722.722 0 0 0 1.444 0v-2.166a.722.722 0 0 0-.722-.721ZM12 2.25a.722.722 0 0 0-.722.722v2.166a.722.722 0 0 0 1.444 0V2.972A.722.722 0 0 0 12 2.25ZM5.86 12a.722.722 0 0 0-.723-.722H2.972a.722.722 0 0 0 0 1.444h2.165A.722.722 0 0 0 5.86 12ZM21.028 11.278h-2.165a.722.722 0 0 0 0 1.444h2.165a.722.722 0 0 0 0-1.444ZM7.148 16.13a.72.72 0 0 0-.51.21l-1.533 1.534a.72.72 0 1 0 1.022 1.022l1.532-1.533a.724.724 0 0 0-.51-1.233ZM16.852 7.87a.72.72 0 0 0 .51-.21l1.533-1.533a.72.72 0 0 0 .211-.511.72.72 0 0 0-.722-.722.72.72 0 0 0-.51.21L16.34 6.639a.72.72 0 0 0-.211.51.72.72 0 0 0 .722.722ZM6.127 5.105a.72.72 0 0 0-.511-.211.72.72 0 0 0-.722.722.72.72 0 0 0 .21.51L6.638 7.66a.72.72 0 0 0 .511.211.72.72 0 0 0 .722-.722.72.72 0 0 0-.21-.51L6.126 5.105ZM17.363 16.34a.72.72 0 1 0-1.022 1.022l1.532 1.533a.72.72 0 0 0 1.022 0 .72.72 0 0 0 0-1.021l-1.532-1.533ZM12 7.5c-2.48 0-4.5 2.02-4.5 4.5s2.02 4.5 4.5 4.5 4.5-2.02 4.5-4.5-2.02-4.5-4.5-4.5Z" fill="currentColor"></path></svg>